# xmcd
#
# Track frame offsets:
#	150
#	19752
#	43377
#	63060
#	90040
#	110400
#	133607
#	154702
#	179857
#	202505
#
# Disc length: 3084 seconds
#
# Revision: 0
# Processed by: cddbd v1.4PL0 Copyright (c) Steve Scherf et al.
# Submitted via: EasyCDDAExtractor 4.6.9.1
#
DISCID=780c0a0a
DTITLE=Tátrai Band - Horváth Charlie - Barátainknak
DYEAR=1996
DGENRE=Blues
TTITLE0=Hajnali szél
TTITLE1=A hold szerelme
TTITLE2=A küszöbön túl
TTITLE3=Utazás az ismeretlenbe
TTITLE4=Égesd a gyertyát
TTITLE5=A sikátor csendje
TTITLE6=Kell az üzemanyag
TTITLE7=Illúziók nélkül
TTITLE8=New York, New York
TTITLE9=Végtelen út
EXTD=A lemez érdekessége, hogy 1996-ban készült poromóciós céllal, annak ellen
EXTD=ére, hogy az együttes ekkor már országszerte híres volt. A Ricoh Hungária
EXTD=Kft.-vel együttmûködve adták ki a lemezt, összesen 500 példányban, minde
EXTD=gyiket dedikálva.
EXTT0=
EXTT1=
EXTT2=
EXTT3=
EXTT4=
EXTT5=
EXTT6=
EXTT7=
EXTT8=
EXTT9=
PLAYORDER=
